<svg t="1572750409169" class="icon" viewBox="0 0 1024 1024" version="1.1" xmlns="http://www.w3.org/2000/svg" p-id="3522" width="200" height="200"><path d="M306.744 672L897.369 81.377l45.255 45.255-590.625 590.625z" fill="#cdcdcd" p-id="3523"></path><path d="M329.377364 694.627778m-22.627417 22.627417a32 32 0 1 0 45.254834-45.254834 32 32 0 1 0-45.254834 45.254834Z" fill="#cdcdcd" p-id="3524"></path><path d="M919.997192 103.991222m-22.627417 22.627417a32 32 0 1 0 45.254834-45.254834 32 32 0 1 0-45.254834 45.254834Z" fill="#cdcdcd" p-id="3525"></path><path d="M896 288a32 32 0 0 0-32 32v576H160l-0.5-768.5 544.5 0.5a32 32 0 0 0 0-64H128a32 32 0 0 0-32 32v832a32 32 0 0 0 32 32h768a32 32 0 0 0 32-32V320a32 32 0 0 0-32-32z" fill="#cdcdcd" p-id="3526"></path><path d="M306.744 672L897.369 81.377l45.255 45.255-590.625 590.625z" fill="#cdcdcd" p-id="3527"></path><path d="M329.377364 694.627778m-22.627417 22.627417a32 32 0 1 0 45.254834-45.254834 32 32 0 1 0-45.254834 45.254834Z" fill="#cdcdcd" p-id="3528"></path><path d="M919.997192 103.991222m-22.627417 22.627417a32 32 0 1 0 45.254834-45.254834 32 32 0 1 0-45.254834 45.254834Z" fill="#cdcdcd" p-id="3529"></path><path d="M896 288a32 32 0 0 0-32 32v576H160l-0.5-768.5 544.5 0.5a32 32 0 0 0 0-64H128a32 32 0 0 0-32 32v832a32 32 0 0 0 32 32h768a32 32 0 0 0 32-32V320a32 32 0 0 0-32-32z" fill="#cdcdcd" p-id="3530"></path></svg>