<svg t="1572750588787" class="icon" viewBox="0 0 1024 1024" version="1.1" xmlns="http://www.w3.org/2000/svg" p-id="5721" width="200" height="200"><path d="M128 64a64 64 0 0 0-64 64v768a64 64 0 0 0 64 64h768a64 64 0 0 0 64-64V128a64 64 0 0 0-64-64H128z m0-64h768a128 128 0 0 1 128 128v768a128 128 0 0 1-128 128H128a128 128 0 0 1-128-128V128a128 128 0 0 1 128-128z" fill="#cdcdcd" p-id="5722"></path><path d="M768 224a32 32 0 1 1 0 64H384a32 32 0 0 1 0-64h384z" fill="#cdcdcd" p-id="5723"></path><path d="M224 224l64 0 0 64-64 0 0-64Z" fill="#cdcdcd" p-id="5724"></path><path d="M768 480a32 32 0 1 1 0 64H384a32 32 0 0 1 0-64h384z" fill="#cdcdcd" p-id="5725"></path><path d="M224 480l64 0 0 64-64 0 0-64Z" fill="#cdcdcd" p-id="5726"></path><path d="M768 736a32 32 0 1 1 0 64H384a32 32 0 1 1 0-64h384z" fill="#cdcdcd" p-id="5727"></path><path d="M224 736l64 0 0 64-64 0 0-64Z" fill="#cdcdcd" p-id="5728"></path></svg>