<svg t="1562570288557" class="icon" viewBox="0 0 1024 1024" version="1.1" xmlns="http://www.w3.org/2000/svg" p-id="16679" width="200" height="200"><path d="M928.426667 439.466667l-76.373334-31.573334-0.853333-0.426666c-5.973333-18.773333-13.653333-37.12-22.613333-54.186667l0.853333-1.706667 31.146667-75.093333c5.12-12.373333 2.133333-26.453333-7.253334-35.84l-59.733333-59.733333c-9.386667-9.386667-23.466667-12.373333-35.84-7.253334L681.813333 204.8l-0.853333 0.426667c-17.493333-8.96-35.413333-16.64-54.186667-22.613334 0-0.426667-0.426667-0.853333-0.426666-1.28l-31.573334-75.52c-5.12-12.373333-17.066667-20.48-30.293333-20.48h-84.48c-13.226667 0-25.173333 8.106667-30.293333 20.48L418.133333 182.186667l-0.426666 0.853333c-18.773333 5.973333-37.12 13.653333-54.186667 22.613333l-1.706667-0.853333L285.866667 173.226667c-12.373333-5.12-26.453333-2.133333-35.84 7.253333l-59.733334 59.733333c-9.386667 9.386667-12.373333 23.466667-7.253333 35.84l31.573333 76.373334c0 0.426667 0.426667 0.853333 0.426667 0.853333-8.96 17.493333-16.64 35.84-22.613333 54.613333l-1.28 0.426667-75.52 31.146667c-12.373333 5.12-20.48 17.066667-20.48 30.293333v84.48c0 13.226667 8.106667 25.173333 20.48 30.293333l76.373333 31.573334 0.853333 0.426666c5.973333 18.346667 13.653333 36.693333 22.613334 54.186667-0.426667 0.426667-0.426667 1.28-0.853334 1.706667L183.466667 747.946667c-5.12 12.373333-2.133333 26.453333 7.253333 35.84l59.733333 59.733333c9.386667 9.386667 23.466667 12.373333 35.84 7.253333l75.946667-31.573333 0.853333-0.426667c17.493333 8.96 35.84 16.64 54.613334 22.613334l0.426666 1.28 31.573334 75.52c5.12 12.373333 17.066667 20.48 30.293333 20.48h84.48c13.226667 0 25.173333-8.106667 30.293333-20.48l31.573334-76.373334 0.426666-0.853333c18.773333-5.973333 37.12-13.653333 54.186667-22.613333l1.706667 0.853333 75.093333 31.146667c12.373333 5.12 26.453333 2.133333 35.84-7.253334l59.733333-59.733333c9.386667-9.386667 12.373333-23.466667 7.253334-35.84l-31.573334-75.946667c0-0.426667-0.426667-0.853333-0.426666-0.853333 8.96-17.493333 16.64-35.84 22.613333-54.613333 0.426667 0 0.853333-0.426667 1.28-0.426667l75.52-31.573333c12.373333-5.12 20.48-17.066667 20.48-30.293334V469.333333c0-12.8-7.68-24.746667-20.053333-29.866666z m-406.613334 195.413333c-67.84 0-122.88-55.04-122.88-122.88s55.04-122.88 122.88-122.88 122.88 55.04 122.88 122.88-55.04 122.88-122.88 122.88z" fill="#cdcdcd" p-id="16680" data-spm-anchor-id="a313x.7781069.0.i122" class="selected"></path></svg>